<!DOCTYPE svg PUBLIC "-//W3C//DTD SVG 20010904//EN" "http://www.w3.org/TR/2001/REC-SVG-20010904/DTD/svg10.dtd">
<svg version="1.0" xmlns="http://www.w3.org/2000/svg" width="1100px" height="312px" viewBox="0 0 11000 3120" preserveAspectRatio="xMidYMid meet">
<g id="layer101" fill="#ffffff" stroke="none">
 <path d="M2224 3001 c-47 -22 -90 -72 -168 -196 -65 -103 -67 -98 54 -109 136 -13 462 -56 647 -86 811 -131 1479 -328 2106 -620 l177 -82 0 -204 0 -204 115 0 115 0 0 140 0 140 53 -30 52 -30 3 -105 3 -105 84 0 85 0 0 -114 c0 -132 -13 -120 138 -132 l92 -7 0 127 0 126 120 0 120 0 0 100 0 100 -120 0 -120 0 0 214 0 214 26 31 c37 45 93 50 175 16 14 -5 23 11 49 90 20 60 29 100 23 106 -19 19 -158 41 -227 35 -134 -10 -219 -75 -256 -195 -17 -55 -20 -92 -20 -287 l0 -224 -58 0 -57 0 -83 83 -82 82 0 268 0 267 -115 0 -115 0 0 -175 c0 -96 -2 -175 -4 -175 -3 0 -37 22 -78 48 -106 70 -212 129 -393 220 -514 257 -1069 444 -1760 592 -175 38 -506 100 -529 100 -6 0 -29 -9 -52 -19z"/>
 <path d="M2520 2478 c0 -7 18 -251 40 -543 22 -291 49 -658 60 -815 11 -157 23 -299 25 -316 7 -39 34 -64 71 -66 52 -3 378 23 415 32 69 18 68 -10 15 693 -74 974 -64 885 -101 925 -35 39 -40 40 -303 77 -209 29 -222 29 -222 13z"/>
 <path d="M6711 2430 c-153 -22 -272 -79 -371 -179 -108 -109 -165 -248 -176 -431 -21 -318 150 -586 430 -676 111 -36 280 -44 391 -19 91 20 204 76 276 136 l50 42 -78 79 c-42 43 -82 78 -87 78 -5 0 -24 -12 -43 -26 -169 -129 -438 -112 -577 36 -26 28 -61 81 -79 118 -43 91 -50 225 -18 329 57 189 213 292 426 281 77 -4 104 -10 160 -36 37 -18 84 -45 104 -61 l38 -30 81 82 c45 45 82 87 82 93 0 16 -108 93 -175 125 -33 16 -87 35 -120 44 -75 19 -230 27 -314 15z"/>
 <path d="M9211 2415 c-239 -54 -376 -269 -342 -536 26 -197 121 -318 294 -371 56 -17 86 -19 170 -16 112 5 169 24 238 79 l39 31 0 -231 0 -231 115 0 115 0 0 635 0 636 -107 -3 -108 -3 -3 -35 c-5 -63 -10 -66 -45 -32 -79 76 -230 108 -366 77z m222 -219 c125 -45 193 -197 148 -330 -17 -49 -73 -111 -125 -139 -61 -32 -165 -30 -231 3 -94 48 -148 169 -124 278 32 153 185 240 332 188z"/>
 <path d="M10353 2416 c-166 -38 -294 -160 -331 -316 -44 -187 -7 -362 104 -480 109 -117 310 -168 492 -125 213 50 321 205 322 458 l0 87 -350 0 -350 0 15 38 c58 143 273 185 440 87 l45 -26 75 68 c41 37 74 72 72 78 -7 21 -126 92 -192 114 -89 29 -251 37 -342 17z m357 -581 c0 -23 -25 -67 -52 -92 -39 -36 -96 -55 -170 -55 -94 0 -168 36 -209 100 -16 25 -29 50 -29 54 0 4 104 8 230 8 201 0 230 -2 230 -15z"/>
 <path d="M8081 2404 c-96 -35 -160 -94 -205 -189 -40 -85 -46 -141 -46 -430 l0 -275 114 0 115 0 3 278 3 279 30 48 c72 117 233 128 332 24 58 -61 63 -93 63 -375 l0 -254 115 0 115 0 0 450 0 451 -102 -3 -103 -3 -3 -30 c-1 -16 -5 -40 -8 -53 l-5 -23 -36 32 c-67 58 -136 83 -243 86 -68 2 -107 -1 -139 -13z"/>
 <path d="M7410 1775 l0 -635 115 0 115 0 0 635 0 635 -115 0 -115 0 0 -635z"/>
 <path d="M3608 2206 c-64 -6 -119 -14 -122 -17 -5 -5 21 -390 27 -396 4 -3 272 36 344 51 112 24 143 63 143 183 0 91 -26 144 -84 172 -48 24 -115 25 -308 7z"/>
 <path d="M4431 1999 c-27 -150 -123 -278 -256 -340 -36 -17 -65 -32 -65 -34 0 -2 24 -17 54 -33 87 -50 171 -134 210 -213 44 -88 53 -156 32 -238 -22 -86 -58 -143 -148 -236 -43 -44 -81 -90 -85 -103 -5 -21 29 -554 44 -689 6 -52 6 -53 40 -53 39 0 414 27 491 36 l52 5 0 48 c0 26 -18 285 -40 576 -21 292 -48 665 -60 830 -11 165 -23 320 -26 344 -8 59 -42 92 -126 120 -37 12 -72 29 -78 37 -21 24 -26 16 -39 -57z"/>
 <path d="M3577 1473 l-48 -4 6 -57 c3 -31 10 -118 16 -192 5 -74 11 -135 12 -135 1 -1 57 2 125 6 108 5 129 10 180 35 33 17 66 44 80 64 21 31 23 44 20 112 -3 69 -6 80 -33 108 -55 58 -92 70 -207 68 -57 -1 -125 -3 -151 -5z"/>
 <path d="M5078 1372 c-76 -47 -74 -188 3 -227 37 -20 112 -19 150 1 77 40 76 189 -2 229 -38 20 -117 19 -151 -3z"/>
 <path d="M3742 754 c-161 -12 -295 -24 -297 -25 -4 -5 20 -328 26 -332 3 -3 566 38 588 42 5 1 -10 245 -18 296 l-6 40 -293 -21z"/>
 </g>

</svg>